<svg id="Ebene_1" data-name="Ebene 1" xmlns="http://www.w3.org/2000/svg" viewBox="0 0 146.19 56.27"><defs><style>.cls-1{fill:#1a69b1;fill-rule:evenodd;}</style></defs><path d="M55.77,43.09H56.9l4,10.06h-1l-1.08-2.69H53.7l-1.09,2.69h-1Zm.49.95-2.19,5.55h4.37Z"/><path d="M68.79,51.42c0,.57,0,1.14,0,1.73H68V51.84h0a2.33,2.33,0,0,1-2.38,1.49c-1.82,0-2.51-1.21-2.51-2.83V45.8H64v4.47c0,1.39.49,2.28,1.74,2.28,1.66,0,2.18-1.46,2.18-2.68V45.8h.91Z"/><path d="M72.52,46.58H71V45.8h1.48v-.53c0-1.54.06-3.1,2-3.1a2.16,2.16,0,0,1,.85.14l-.06.8a1.63,1.63,0,0,0-.72-.16c-1.24,0-1.11,1.34-1.11,2.22v.63h1.66v.78H73.43v6.57h-.91Z"/><path d="M76.86,52.39l4.42-5.81H77V45.8h5.31v.78l-4.43,5.8h4.43v.77H76.86Z"/><path d="M90.51,51.42a16.86,16.86,0,0,0,.06,1.73h-.88V51.84h0a2.32,2.32,0,0,1-2.38,1.49c-1.82,0-2.51-1.21-2.51-2.83V45.8h.91v4.47c0,1.39.49,2.28,1.74,2.28,1.66,0,2.18-1.46,2.18-2.68V45.8h.91Z"/><path d="M99.44,52.55c0,2.05-.92,3.72-3.44,3.72a7.81,7.81,0,0,1-2.22-.39l.07-.91a5,5,0,0,0,2.17.52c2.33,0,2.53-1.7,2.53-3.78h0a2.26,2.26,0,0,1-2.23,1.44c-2.35,0-3.1-2-3.1-3.67,0-2.24.87-3.85,3-3.85a2.43,2.43,0,0,1,2.29,1h0V45.8h.9Zm-3.14-.17c1.65,0,2.24-1.56,2.24-2.9,0-1.77-.52-3.07-2.18-3.07s-2.18,1.64-2.18,3.07S94.76,52.38,96.3,52.38Z"/><path d="M102.47,47.53c0-.56,0-1.14,0-1.73h.87v1.32h0a2.33,2.33,0,0,1,2.38-1.49c1.82,0,2.51,1.21,2.51,2.83v4.69h-.91V48.69c0-1.39-.49-2.28-1.74-2.28-1.66,0-2.18,1.45-2.18,2.68v4.06h-.91Z"/><path d="M114.19,45.63c2.38,0,3.43,1.85,3.43,3.85s-1.05,3.85-3.43,3.85-3.43-1.85-3.43-3.85S111.81,45.63,114.19,45.63Zm0,6.92c1.59,0,2.44-1.37,2.44-3.07s-.85-3.07-2.44-3.07-2.43,1.37-2.43,3.07S112.61,52.55,114.19,52.55Z"/><path d="M123.34,46.58h-1.67v4.76c0,.66.25,1.21,1,1.21a2.13,2.13,0,0,0,.84-.17l.06.75a3.56,3.56,0,0,1-1.11.2c-1.62,0-1.68-1.11-1.68-2.45v-4.3h-1.44V45.8h1.44V44l.91-.32V45.8h1.67Z"/><path d="M125.81,47.45a12.84,12.84,0,0,0-.06-1.65h.91v1.42h0a2.17,2.17,0,0,1,1.89-1.59,2.39,2.39,0,0,1,.63.09v1a2.29,2.29,0,0,0-.66-.09c-1.44,0-1.83,1.62-1.83,2.94v3.63h-.91Z"/><path d="M137.18,51.42a16.86,16.86,0,0,0,.06,1.73h-.88V51.84h0A2.32,2.32,0,0,1,134,53.33c-1.81,0-2.5-1.21-2.5-2.83V45.8h.9v4.47c0,1.39.49,2.28,1.75,2.28,1.65,0,2.17-1.46,2.17-2.68V45.8h.91Z"/><path d="M140.91,46.58h-1.48V45.8h1.48v-.53c0-1.54.06-3.1,2-3.1a2.1,2.1,0,0,1,.85.14l-.06.8a1.59,1.59,0,0,0-.72-.16c-1.24,0-1.11,1.34-1.11,2.22v.63h1.66v.78h-1.66v6.57h-.91Z"/><path d="M52,19.38h4.27c3.66,0,7,1.06,7,5.08s-2.87,5.36-6.48,5.36H55.32v6.39H52Zm3.37,7.78H56.5c1.69,0,3.21-.55,3.21-2.5S58.24,22,56.5,22H55.32Z"/><path d="M66.39,19.38H70c3.62,0,7.93-.13,7.93,4.55a3.85,3.85,0,0,1-3.47,3.91v.05c.92.07,1.45,1,1.78,1.73L79,36.21H75.21l-2-5.26c-.49-1.25-.92-1.74-2.34-1.74H69.76v7H66.39Zm3.37,7.18h1.11c1.67,0,3.57-.24,3.57-2.34S72.56,22,70.87,22H69.76Z"/><path d="M89.05,19.09c5.28,0,8.24,3.56,8.24,8.65s-2.91,8.76-8.24,8.76-8.25-3.6-8.25-8.76S83.69,19.09,89.05,19.09Zm0,14.75c3.45,0,4.72-3.06,4.72-6.1s-1.37-6-4.72-6-4.73,3-4.73,6S85.6,33.84,89.05,33.84Z"/><path d="M100.51,19.38h3.38V33.55h6.53v2.66h-9.91Z"/><path d="M113.49,19.38h3.38V36.21h-3.38Z"/><path d="M121.43,19.38h9.36V22h-6v4.15h5.69v2.65h-5.69v7.38h-3.38Z"/><path d="M138,22h-4.82V19.38h13V22h-4.82V36.21H138Z"/><polygon class="cls-1" points="18.64 8.88 23.5 4.01 19.49 0 0 19.49 8.03 19.49 18.64 8.88 18.64 8.88"/><polygon class="cls-1" points="25.51 6.02 21.5 10.03 30.96 19.49 38.98 19.49 25.51 6.02"/><polygon class="cls-1" points="17.49 45.63 8.03 36.17 0 36.17 13.47 49.64 17.49 45.63"/><polygon class="cls-1" points="30.96 36.17 20.35 46.78 20.35 46.78 15.48 51.65 19.49 55.66 38.98 36.17 30.96 36.17"/></svg>