<?xml version="1.0" encoding="UTF-8" standalone="no"?>
<!DOCTYPE svg PUBLIC "-//W3C//DTD SVG 1.1//EN" "http://www.w3.org/Graphics/SVG/1.1/DTD/svg11.dtd">
<svg width="100%" height="100%" viewBox="0 0 281 99" version="1.1" xmlns="http://www.w3.org/2000/svg" xmlns:xlink="http://www.w3.org/1999/xlink" xml:space="preserve" xmlns:serif="http://www.serif.com/" style="fill-rule:evenodd;clip-rule:evenodd;stroke-linejoin:round;stroke-miterlimit:2;">
    <g transform="matrix(1,0,0,1,-245.634,-110.217)">
        <text x="356.068px" y="167.936px" style="font-family:'Arial-BoldMT', 'Arial', sans-serif;font-weight:700;font-size:30.061px;">T<tspan x="372.994px 390.507px 399.653px 417.166px 436.322px 453.835px 466.328px 477.133px 496.289px 513.802px " y="167.936px 167.936px 167.936px 167.936px 167.936px 167.936px 167.936px 167.936px 167.936px 167.936px ">elegärtner</tspan></text>
    </g>
    <g transform="matrix(1,0,0,1,-245.634,-110.217)">
        <text x="356.068px" y="195.535px" style="font-family:'ArialMT', 'Arial', sans-serif;font-size:23px;">E<tspan x="373.043px 379.787px 394.212px 407.346px 415.371px 424.664px 439.089px 453.515px 460.258px " y="195.535px 195.535px 195.535px 195.535px 195.535px 195.535px 195.535px 195.535px 195.535px ">lektronik</tspan></text>
    </g>
    <g transform="matrix(1,0,0,1,40.0459,50.655)">
        <path d="M0,-50.655L0,-25.212L-18.794,-5.059L-13.368,0L7.417,-22.29L7.417,-50.655L0,-50.655Z" style="fill:rgb(0,106,180);"/>
    </g>
    <g transform="matrix(1,0,0,1,40.0459,74.3984)">
        <path d="M0,-4.666L0,23.69L7.417,23.69L7.417,-1.744L27.516,-23.297L22.09,-28.356L0,-4.666Z" style="fill:rgb(0,106,180);"/>
    </g>
    <g transform="matrix(1,0,0,1,0,32.3088)">
        <path d="M0,27.572L31.841,27.572L52.834,5.059L47.408,0L28.615,20.154L0,20.154L0,27.572Z" style="fill:rgb(0,106,180);"/>
    </g>
    <g transform="matrix(1,0,0,1,60.1972,56.9703)">
        <path d="M0,-12.735L28.615,-12.735L28.615,-20.153L-3.226,-20.153L-24.219,2.359L-18.793,7.418L0,-12.735Z" style="fill:rgb(0,106,180);"/>
    </g>
</svg>
